<svg xmlns="http://www.w3.org/2000/svg" viewBox="0 0 408.85 409.6"><defs><style>.cls-1{fill:#fff;}</style></defs><title>Fichier 1</title><g id="Calque_2" data-name="Calque 2"><g id="Calque_1-2" data-name="Calque 1"><path class="cls-1" d="M280.52,230.94l-55.61-34.17a6.12,6.12,0,0,0-2.24-.82l-17.41-3.07a6,6,0,1,0-2.09,11.82l16.43,2.9,54.64,33.57a6,6,0,0,0,6.29-10.23Zm0,0"/><path class="cls-1" d="M407.24,232.87a6,6,0,0,0-8.48-.29l-24.33,22.74L263,145.33,407,10.38a6,6,0,1,0-8.21-8.76L250.2,140.84a6.06,6.06,0,0,0-.11,8.65l9.86,9.73L256.8,162l-65.91-5.68a6,6,0,0,0-3,.52l-52.22,23.78-.46-.1-30-5.3L107.6,169a6,6,0,0,0-3.36-7.76l-96-38.41A6,6,0,0,0,3.77,134l90.48,36.19L40.94,306.45,8,294.78a6,6,0,0,0-4,11.31L42.4,319.7A6,6,0,0,0,50,316.23l8.91-22.77,23.35,13.09-2.57,4.17a25.19,25.19,0,0,0,29.22,37.19,25.18,25.18,0,0,0,32.68,20.17,25.19,25.19,0,0,0,32.68,20.17,25.19,25.19,0,0,0,46.36,9.43l4.09-6.63,3.37,2.07a25.15,25.15,0,0,0,34.67-8.28,25,25,0,0,0,3.67-14.7,25,25,0,0,0,5.82.7,25.41,25.41,0,0,0,21.52-12,25,25,0,0,0,3.68-14.7,24.8,24.8,0,0,0,5.81.7,25.4,25.4,0,0,0,21.52-12,25,25,0,0,0,3.68-14.71,25.2,25.2,0,0,0,19-46l-4.11-2.53,13.79-14.41,12.9,12.73a6.06,6.06,0,0,0,8.31.11L407,241.35a6,6,0,0,0,.29-8.48Zm-294.87,98A13.2,13.2,0,0,1,89.89,317l33.61-54.47a13.26,13.26,0,0,1,17.95-4.43c6.36,3.76,8.12,12.48,4.3,18.67ZM145,351a13.2,13.2,0,1,1-22.47-13.86l26.89-43.58a13.27,13.27,0,0,1,17.94-4.44c6.36,3.76,8.12,12.48,4.3,18.67Zm32.68,20.17a13.2,13.2,0,0,1-18.17,4.3,13.32,13.32,0,0,1-4.3-18.16l20.16-32.68a13.27,13.27,0,0,1,17.95-4.44c6.36,3.76,8.11,12.48,4.3,18.67Zm45.9-1.25-13.22,21.42a13.2,13.2,0,1,1-22.47-13.87l13.45-21.79a13.26,13.26,0,0,1,17.95-4.43c6.36,3.76,8.12,12.48,4.3,18.67ZM333,263.16,303.2,244.88a6,6,0,1,0-6.28,10.23l44.32,27.23a13.2,13.2,0,0,1-13.82,22.5l-47.53-29.21a6,6,0,0,0-6.28,10.23l36.63,22.5a13.2,13.2,0,1,1-13.83,22.5l-33.19-20.39a6,6,0,0,0-6.29,10.22l22.28,13.7a13.2,13.2,0,0,1-13.82,22.5s-19.6-12-19.78-12.12a6,6,0,0,0-5.75,10.52l8.34,5.12a13.2,13.2,0,1,1-13.82,22.5L231,380.83l2.83-4.57a26,26,0,0,0,3.07-19.75A24.81,24.81,0,0,0,211,337.55a26,26,0,0,0-.06-12.11,24.81,24.81,0,0,0-25.9-19,25.54,25.54,0,0,0-11.54-27.66,25,25,0,0,0-14.42-3.41,25.12,25.12,0,0,0-45.8-19.19L88.57,296.31,63.32,282.17l37.39-95.56,20.36,3.59a25.2,25.2,0,0,0,30,38.77l35.14-16a6,6,0,0,0-5-10.92l-35.14,16a13.2,13.2,0,1,1-10.95-24l56.23-25.61,66.89,5.76.52,0a6,6,0,0,0,4-1.5l5.69-5,80.15,79.08Zm0,0"/></g></g></svg>